<?xml version="1.0" standalone="no"?>
<!DOCTYPE svg PUBLIC "-//W3C//DTD SVG 20010904//EN"
 "http://www.w3.org/TR/2001/REC-SVG-20010904/DTD/svg10.dtd">
<svg version="1.0" xmlns="http://www.w3.org/2000/svg"
 width="492.000000pt" height="492.000000pt" viewBox="0 0 492.000000 492.000000"
 preserveAspectRatio="xMidYMid meet">
<metadata>
Created by potrace 1.11, written by Peter Selinger 2001-2013
</metadata>
<g transform="translate(0.000000,492.000000) scale(0.100000,-0.100000)"
fill="#000000" stroke="none">
<path d="M1648 4538 c-110 -14 -203 -49 -408 -153 -47 -23 -105 -54 -130 -69
-25 -14 -65 -36 -90 -48 -25 -13 -46 -26 -48 -30 -2 -5 -7 -8 -12 -8 -4 0 -59
-28 -121 -63 -63 -34 -127 -69 -144 -77 -60 -29 -251 -135 -300 -166 -84 -53
-169 -161 -179 -228 -1 -6 -4 -15 -7 -21 -15 -25 -18 -63 -6 -79 12 -16 16
-16 62 8 28 14 64 28 80 31 24 4 23 2 -9 -10 -40 -15 -101 -57 -124 -85 -30
-36 -69 -129 -88 -207 -4 -15 -8 -80 -10 -143 -2 -95 1 -131 21 -208 84 -327
341 -548 574 -492 94 22 127 100 81 190 -22 43 -32 51 -162 125 -214 121 -308
232 -308 363 0 140 75 216 202 206 77 -6 203 -86 264 -167 38 -50 80 -76 135
-81 62 -7 83 1 103 36 46 76 -29 202 -209 350 -111 93 -205 128 -365 137 -23
1 1 17 45 30 22 7 49 16 60 21 11 5 85 27 164 50 80 22 175 54 212 69 l67 28
28 -22 c79 -60 147 -100 344 -202 118 -61 256 -128 305 -148 50 -21 168 -76
263 -122 l172 -86 0 -102 c0 -57 -3 -110 -6 -119 -5 -14 -35 -16 -231 -16
-146 0 -240 -4 -265 -12 -82 -24 -138 -108 -178 -264 -33 -128 -65 -302 -75
-410 -3 -27 -7 -71 -10 -99 -8 -79 -15 -157 -31 -370 -3 -38 -7 -90 -9 -115
-2 -25 -7 -133 -11 -241 -7 -192 -6 -197 16 -237 57 -101 174 -87 205 26 4 12
10 22 14 22 4 0 45 -15 92 -34 103 -41 161 -51 359 -62 144 -7 181 -13 225
-34 64 -31 100 -109 110 -240 19 -244 25 -266 84 -302 55 -34 149 -47 321 -43
161 3 215 14 288 55 21 12 46 34 57 50 21 31 36 37 130 46 33 3 66 10 73 17
16 13 11 58 -18 177 -11 41 -22 111 -25 155 -5 81 -11 165 -20 310 -8 120 -14
205 -19 250 -3 22 -8 87 -11 145 -4 58 -9 108 -11 111 -3 5 73 117 106 156 81
97 132 208 136 298 6 104 -45 158 -193 205 -48 16 -91 34 -95 42 -3 7 -14 58
-23 112 -10 60 -27 122 -44 155 -23 47 -35 60 -80 82 -70 35 -101 39 -301 40
l-170 0 -1 112 c0 62 -2 135 -4 162 -1 28 -6 98 -9 156 -4 59 -9 117 -11 130
-3 13 -7 38 -9 54 -12 83 -62 290 -88 365 -34 95 -91 213 -142 292 -38 60
-146 167 -191 190 -98 51 -262 74 -397 56z m187 -454 c143 -45 247 -227 270
-474 10 -107 11 -231 3 -236 -4 -3 -81 31 -170 75 -90 44 -201 95 -248 114
-151 62 -196 82 -221 98 -13 8 -108 57 -211 109 -104 51 -188 100 -188 107 0
12 29 27 165 88 104 47 268 109 329 125 88 22 190 20 271 -6z m-1428 -440 c-3
-3 -12 -4 -19 -1 -8 3 -5 6 6 6 11 1 17 -2 13 -5z m2817 -1255 c31 -36 32 -49
7 -127 -20 -66 -59 -128 -72 -115 -7 7 -16 97 -23 231 -2 41 -2 42 30 42 24 0
39 -8 58 -31z m-778 -84 c21 -9 39 -28 55 -61 23 -47 24 -57 24 -279 0 -266
-7 -303 -61 -328 -64 -31 -208 -49 -504 -62 -69 -4 -163 -8 -210 -11 -47 -2
-115 -6 -152 -8 l-67 -3 5 46 c10 99 10 98 62 96 73 -4 118 21 147 80 28 58
32 78 40 200 12 195 19 222 69 271 44 43 88 53 253 60 76 3 139 7 140 8 10 8
174 2 199 -9z"/>
<path d="M3243 1768 c-14 -18 -17 -296 -3 -332 6 -15 24 -41 41 -57 28 -26 30
-33 32 -106 3 -114 32 -164 108 -187 15 -4 14 -10 -7 -53 -46 -93 -59 -166
-59 -323 1 -188 44 -280 158 -333 112 -53 317 -61 413 -17 27 13 58 25 68 27
42 8 111 108 146 213 18 54 21 80 17 155 -3 50 -8 104 -12 120 -9 41 -44 111
-83 168 -19 26 -30 47 -24 47 25 0 62 -46 88 -107 15 -38 38 -80 52 -94 50
-56 185 -87 362 -85 108 2 128 0 146 -16 21 -19 39 -25 105 -35 30 -4 39 -1
57 21 18 23 20 37 17 114 -4 78 -9 125 -21 187 -2 11 -7 34 -10 50 -17 95 -49
192 -101 305 -14 30 -36 78 -48 105 -25 55 -95 134 -141 158 -51 26 -154 56
-213 62 -139 14 -212 16 -632 20 -352 4 -448 3 -456 -7z m561 -920 c37 -16 55
-49 62 -112 12 -97 -28 -147 -109 -140 -106 10 -158 107 -109 204 27 55 95 76
156 48z"/>
<path d="M1585 1201 c-67 -13 -134 -45 -176 -85 -68 -63 -148 -255 -165 -396
-12 -95 -9 -220 6 -265 13 -40 73 -104 120 -130 76 -40 356 -64 513 -43 118
15 217 162 288 426 35 133 39 212 14 287 -39 116 -109 162 -300 200 -51 10
-258 14 -300 6z m228 -253 c21 -10 47 -33 58 -51 17 -28 19 -43 14 -109 -7
-93 -17 -131 -47 -174 -31 -46 -73 -68 -127 -66 -163 5 -237 90 -196 227 27
87 77 158 130 181 41 19 122 15 168 -8z"/>
</g>
</svg>
